<?xml version="1.0" encoding="utf-8"?>
<!-- Generator: Adobe Illustrator 16.0.0, SVG Export Plug-In . SVG Version: 6.00 Build 0)  -->
<!DOCTYPE svg PUBLIC "-//W3C//DTD SVG 1.1//EN" "http://www.w3.org/Graphics/SVG/1.1/DTD/svg11.dtd">
<svg version="1.1" id="Modalità_Isolamento" xmlns="http://www.w3.org/2000/svg" xmlns:xlink="http://www.w3.org/1999/xlink"
	 x="0px" y="0px" width="168.667px" height="169.663px" viewBox="0 0 168.667 169.663" enable-background="new 0 0 168.667 169.663"
	 xml:space="preserve">
<g>
	<path fill="#1A7DC1" d="M29.99,139.976c29.956,29.957,78.697,29.956,108.653,0s29.956-78.696,0-108.653
		c-29.957-29.956-78.697-29.957-108.653,0S0.034,110.02,29.99,139.976z M133.469,36.497c27.102,27.103,27.103,71.203,0,98.305
		c-27.104,27.103-71.203,27.103-98.306,0S8.061,63.6,35.165,36.497C62.266,9.395,106.366,9.395,133.469,36.497z"/>
	<path fill="#1A7DC1" d="M50.685,57.193L79.142,85.65l-28.456,28.457c-1.43,1.429-1.429,3.746,0,5.174
		c1.428,1.429,3.745,1.429,5.174,0l28.457-28.457l28.456,28.457c1.429,1.429,3.745,1.428,5.175,0
		c1.428-1.429,1.428-3.745-0.001-5.173L89.491,85.65l28.457-28.457c1.428-1.429,1.428-3.746,0-5.175
		c-1.429-1.428-3.746-1.428-5.175,0L84.316,80.476L55.859,52.019c-1.429-1.428-3.744-1.429-5.173,0S49.256,55.765,50.685,57.193z"/>
</g>
</svg>
