<?xml version="1.0" encoding="utf-8"?>
<!-- Generator: Adobe Illustrator 16.0.0, SVG Export Plug-In . SVG Version: 6.00 Build 0)  -->
<!DOCTYPE svg PUBLIC "-//W3C//DTD SVG 1.1//EN" "http://www.w3.org/Graphics/SVG/1.1/DTD/svg11.dtd">
<svg version="1.1" id="Livello_1" xmlns="http://www.w3.org/2000/svg" xmlns:xlink="http://www.w3.org/1999/xlink" x="0px" y="0px"
	 width="56.38px" height="42.123px" viewBox="0 0 56.38 42.123" enable-background="new 0 0 56.38 42.123" xml:space="preserve">
<path fill="#1A7DC1" d="M46.434,35.939h-36c-1.104,0-2-0.895-2-1.999c0-1.105,0.896-2.001,2-2.001h36c1.104,0,2,0.896,2,2.001
	C48.434,35.044,47.538,35.939,46.434,35.939 M10.497,7.095h36c1.104,0,2,0.895,2,1.999c0,1.105-0.896,2-2,2h-36
	c-1.104,0-2-0.895-2-2C8.497,7.989,9.393,7.095,10.497,7.095 M10.409,19.616h36c1.104,0,2,0.895,2,1.999c0,1.105-0.896,2-2,2h-36
	c-1.104,0-2-0.895-2-2C8.409,20.511,9.305,19.616,10.409,19.616"/>
</svg>
